<?xml version="1.0" encoding="UTF-8"?>
<svg xmlns="http://www.w3.org/2000/svg" xmlns:xlink="http://www.w3.org/1999/xlink" width="612" height="792" viewBox="0 0 612 792">
<defs>
<filter id="filter-remove-color" x="0%" y="0%" width="100%" height="100%">
<feColorMatrix color-interpolation-filters="sRGB" values="0 0 0 0 1 0 0 0 0 1 0 0 0 0 1 0 0 0 1 0" />
</filter>
<mask id="mask-0">
<g filter="url(#filter-remove-color)">
<rect x="-61.2" y="-79.2" width="734.4" height="950.4" fill="rgb(0%, 0%, 0%)" fill-opacity="0.5"/>
</g>
</mask>
<clipPath id="clip-0">
<rect x="0" y="0" width="111" height="516"/>
</clipPath>
<g id="source-5" clip-path="url(#clip-0)">
<path fill="none" stroke-width="20" stroke-linecap="butt" stroke-linejoin="miter" stroke="rgb(100%, 84.309387%, 0%)" stroke-opacity="1" stroke-miterlimit="4" d="M 480.00228 119.999468 L 480.00228 880.001286 M 529.998452 119.999468 L 529.998452 880.001286 M 429.999724 119.999468 L 429.999724 880.001286 " transform="matrix(0.612, 0, 0, 0.612, -238.058258, -48.131077)"/>
</g>
</defs>
<path fill="none" stroke-width="20" stroke-linecap="butt" stroke-linejoin="miter" stroke="rgb(100%, 84.309387%, 0%)" stroke-opacity="1" stroke-miterlimit="4" d="M 499.999464 100.002275 L 499.999464 899.998479 M 550.002019 100.002275 L 550.002019 899.998479 M 449.996909 100.002275 L 449.996909 899.998479 " transform="matrix(0.612, 0, 0, 0.612, 5.941747, 89.868923)"/>
<path fill="none" stroke-width="20" stroke-linecap="butt" stroke-linejoin="miter" stroke="rgb(100%, 34.118652%, 19.999695%)" stroke-opacity="1" stroke-miterlimit="4" d="M 499.999464 100.002275 L 499.999464 899.998479 M 550.002019 100.002275 L 550.002019 899.998479 M 449.996909 100.002275 L 449.996909 899.998479 " transform="matrix(0.612, 0, 0, 0.612, 5.941747, 89.868923)"/>
<g mask="url(#mask-0)">
<use xlink:href="#source-5" transform="matrix(1, 0, 0, 1, 244, 138)"/>
</g>
</svg>
